<?xml version="1.0" encoding="UTF-8"?>
<svg width="24px" height="24px" viewBox="0 0 24 24" fill="#4c4c4c" version="1.1" xmlns="http://www.w3.org/2000/svg" xmlns:xlink="http://www.w3.org/1999/xlink">
    <title>3. Icon/Outline/Arrow-left-long</title>
    <g id="3.-Icon/Outline/Arrow-left-long" stroke="none" stroke-width="1"  fill-rule="evenodd" >
        <path d="M21,11 L5.4,11 L10.7,5.7 C11.1,5.3 11.1,4.7 10.7,4.3 C10.3,3.9 9.7,3.9 9.3,4.3 L2.3,11.3 C1.9,11.7 1.9,12.3 2.3,12.7 L9.3,19.7 C9.5,19.9 9.7,20 10,20 C10.3,20 10.5,19.9 10.7,19.7 C11.1,19.3 11.1,18.7 10.7,18.3 L5.4,13 L21,13 C21.6,13 22,12.6 22,12 C22,11.4 21.6,11 21,11 Z" id="↳-🎨COLOR" ></path>
    </g>
</svg>