<?xml version="1.0" encoding="UTF-8"?>
<svg width="24px" height="24px" viewBox="0 0 24 24" fill="#4c4c4c" version="1.1" xmlns="http://www.w3.org/2000/svg" xmlns:xlink="http://www.w3.org/1999/xlink">
    <title>3. Icon/Outline/Checkbox-unchecked</title>
    <g id="3.-Icon/Outline/Checkbox-unchecked" stroke="none" stroke-width="1"  fill-rule="evenodd" >
        <path d="M4,5 L4,19 C4,19.5 4.4,20 5,20 L19,20 C19.5,20 20,19.6 20,19 L20,5 C20,4.5 19.6,4 19,4 L5,4 C4.4,4 4,4.4 4,5 Z M2,5 C2,3.3 3.3,2 5,2 L19,2 C20.7,2 22,3.3 22,5 L22,19 C22,20.7 20.7,22 19,22 L5,22 C3.3,22 2,20.7 2,19 L2,5 Z" id="↳-🎨COLOR" ></path>
    </g>
</svg>