<?xml version="1.0" encoding="UTF-8"?>
<svg width="24px" height="24px" viewBox="0 0 24 24" fill="#4c4c4c" version="1.1" xmlns="http://www.w3.org/2000/svg" xmlns:xlink="http://www.w3.org/1999/xlink">
    <title>3. Icon/Outline/Mouse</title>
    <g id="3.-Icon/Outline/Mouse" stroke="none" stroke-width="1"  fill-rule="evenodd" >
        <path d="M16,16 C16,18.337 13.985,20.213 11.6,19.98 C9.522,19.778 8,17.91 8,15.822 L8,8 C8,6.142 9,4.589 11,4.142 L11,8 C11,8.552 11.448,9 12,9 C12.552,9 13,8.552 13,8 L13,4.142 C15,4.589 16,6.142 16,8 L16,16 Z M12,2 C8.686,2 6,4.686 6,8 L6,16 C6,19.314 8.686,22 12,22 C15.314,22 18,19.314 18,16 L18,8 C18,4.686 15.314,2 12,2 L12,2 Z" id="↳-🎨COLOR" ></path>
    </g>
</svg>