<?xml version="1.0" encoding="UTF-8"?>
<svg width="24px" height="24px" viewBox="0 0 24 24" fill="#4c4c4c" version="1.1" xmlns="http://www.w3.org/2000/svg" xmlns:xlink="http://www.w3.org/1999/xlink">
    <title>3. Icon/Outline/Operator-dash</title>
    <g id="3.-Icon/Outline/Operator-dash" stroke="none" stroke-width="1"  fill-rule="evenodd" >
        <path d="M12.7142857,12 L13.1158743,13.6063542 C13.286783,13.662518 13.4519978,13.7312325 13.6104283,13.8114074 L15.0304576,12.9593898 L16.0406102,13.9695424 L15.1885926,15.3895717 C15.2687675,15.5480022 15.337482,15.713217 15.3936458,15.8841257 L17,16.2857143 L17,17.7142857 L15.3936458,18.1158743 C15.3562033,18.2298134 15.3131827,18.3412219 15.264907,18.4497767 L15.1885926,18.6104283 L16.0406102,20.0304576 L15.0304576,21.0406102 L13.6104283,20.1885926 C13.5048079,20.2420425 13.3961724,20.290399 13.2848446,20.3333388 L13.1158743,20.3936458 L12.7142857,22 L11.2857143,22 L10.8841257,20.3936458 C10.7701866,20.3562033 10.6587781,20.3131827 10.5502233,20.264907 L10.3895717,20.1885926 L8.96954237,21.0406102 L7.95938982,20.0304576 L8.81140742,18.6104283 C8.75795745,18.5048079 8.70960103,18.3961724 8.66666117,18.2848446 L8.6063542,18.1158743 L7,17.7142857 L7,16.2857143 L8.6063542,15.8841257 C8.66251799,15.713217 8.73123247,15.5480022 8.81140742,15.3895717 L7.95938982,13.9695424 L8.96954237,12.9593898 L10.3895717,13.8114074 C10.5480022,13.7312325 10.713217,13.662518 10.8841257,13.6063542 L11.2857143,12 L12.7142857,12 Z M22,10 L22,18 C22,19.1 21.1,20 20,20 L19,20 L19,18 L19.5,18 C19.8,18 20,17.8 20,17.5 L20,10 L22,10 Z M15,2 C16.1,2 17,2.9 17,4 L17,6 L20,6 C21.1,6 22,6.9 22,8 L22,10 L20,10 L20,8.5 C20,8.2 19.8,8 19.5,8 L4.5,8 C4.2,8 4,8.2 4,8.5 L4,17.5 C4,17.8 4.2,18 4.5,18 L5,18 L5,20 L4,20 C2.9,20 2,19.1 2,18 L2,8 C2,6.9 2.9,6 4,6 L7,6 L7,4 C7,2.9 7.9,2 9,2 L15,2 Z M12,14.8571429 C10.8587994,14.8571429 9.92595651,15.7492285 9.8607805,16.8740909 L9.85714286,17 C9.85714286,18.1834673 10.8165327,19.1428571 12,19.1428571 C12.8833738,19.1428571 13.6419016,18.6083277 13.969784,17.8450683 L14.0209245,17.7142857 L14.0675461,17.5651511 L14.091438,17.4687246 L14.1152876,17.3446464 L14.1250957,17.2771761 L14.1350477,17.1842363 C14.1402186,17.1235111 14.1428571,17.0620637 14.1428571,17 L14.1350495,16.8157855 L14.1251321,16.7231062 L14.1033813,16.5884808 L14.091462,16.5313831 L14.0602026,16.4085854 L14.0179315,16.2773026 C13.7214008,15.4494192 12.9298672,14.8571429 12,14.8571429 Z M14.5,4 L9.5,4 C9.2,4 9,4.2 9,4.5 L9,6 L15,6 L15,4.5 C15,4.2 14.8,4 14.5,4 Z" id="↳-🎨COLOR" ></path>
    </g>
</svg>