<?xml version="1.0" encoding="UTF-8"?>
<svg width="24px" height="24px" viewBox="0 0 24 24" fill="#4c4c4c" version="1.1" xmlns="http://www.w3.org/2000/svg" xmlns:xlink="http://www.w3.org/1999/xlink">
    <title>3. Icon/Outline/Picture</title>
    <g id="3.-Icon/Outline/Picture" stroke="none" stroke-width="1"  fill-rule="evenodd" >
        <path d="M21,2 C21.5522847,2 22,2.44771525 22,3 L22,21 C22,21.5522847 21.5522847,22 21,22 L3,22 C2.44771525,22 2,21.5522847 2,21 L2,3 C2,2.44771525 2.44771525,2 3,2 L21,2 Z M20,4 L4,4 L4,20 L6.464,20 L14.900183,7.3469533 L20,13.297 L20,4 Z M15.0998212,10.6530467 L8.868,20 L20,20 L20,16.37 L15.0998212,10.6530467 Z M8,5 C6.3,5 5,6.3 5,8 C5,9.7 6.3,11 8,11 C9.7,11 11,9.7 11,8 C11,6.3 9.7,5 8,5 Z M8,9 C7.4,9 7,8.6 7,8 C7,7.4 7.4,7 8,7 C8.6,7 9,7.4 9,8 C9,8.6 8.6,9 8,9 Z" id="↳-🎨COLOR" ></path>
    </g>
</svg>