<?xml version="1.0" encoding="UTF-8"?>
<svg width="24px" height="24px" viewBox="0 0 24 24" fill="#4c4c4c" version="1.1" xmlns="http://www.w3.org/2000/svg" xmlns:xlink="http://www.w3.org/1999/xlink">
    <title>3. Icon/Outline/Plus</title>
    <g id="3.-Icon/Outline/Plus" stroke="none" stroke-width="1"  fill-rule="evenodd" >
        <path d="M21,11 L13,11 L13,3 C13,2.4 12.6,2 12,2 C11.4,2 11,2.4 11,3 L11,11 L3,11 C2.4,11 2,11.4 2,12 C2,12.6 2.4,13 3,13 L11,13 L11,21 C11,21.6 11.4,22 12,22 C12.6,22 13,21.6 13,21 L13,13 L21,13 C21.6,13 22,12.6 22,12 C22,11.4 21.6,11 21,11 Z" id="↳-🎨COLOR" ></path>
    </g>
</svg>