<?xml version="1.0" encoding="UTF-8"?>
<svg width="24px" height="24px" viewBox="0 0 24 24" fill="#4c4c4c" version="1.1" xmlns="http://www.w3.org/2000/svg" xmlns:xlink="http://www.w3.org/1999/xlink">
    <title>3. Icon/Outline/Search</title>
    <g id="3.-Icon/Outline/Search" stroke="none" stroke-width="1"  fill-rule="evenodd" >
        <path d="M10.5,3 C14.6421356,3 18,6.35786438 18,10.5 C18,12.2106044 17.4273178,13.7874516 16.4632192,15.0492761 L20.710088,19.2944639 C21.1006735,19.684927 21.1007726,20.318092 20.7103095,20.7086774 C20.3198464,21.0992629 19.6866814,21.0993621 19.296096,20.708899 L15.0492761,16.4632192 C13.7874516,17.4273178 12.2106044,18 10.5,18 C6.35786438,18 3,14.6421356 3,10.5 C3,6.35786438 6.35786438,3 10.5,3 Z M10.5,5 C7.46243388,5 5,7.46243388 5,10.5 C5,13.5375661 7.46243388,16 10.5,16 C13.5375661,16 16,13.5375661 16,10.5 C16,7.46243388 13.5375661,5 10.5,5 Z" id="↳-🎨COLOR" ></path>
    </g>
</svg>