<?xml version="1.0" encoding="UTF-8"?>
<svg width="24px" height="24px" viewBox="0 0 24 24" fill="#4c4c4c" version="1.1" xmlns="http://www.w3.org/2000/svg" xmlns:xlink="http://www.w3.org/1999/xlink">
    <title>3. Icon/Fill/Checkbox-semi-checked-fill</title>
    <g id="3.-Icon/Fill/Checkbox-semi-checked" stroke="none" stroke-width="1"  fill-rule="evenodd" >
        <path d="M20,2 C21.1,2 22,2.9 22,4 L22,4 L22,20 C22,21.1 21.1,22 20,22 L20,22 L4,22 C2.9,22 2,21.1 2,20 L2,20 L2,4 C2,2.9 2.9,2 4,2 L4,2 Z M17,11 L7,11 C6.44771525,11 6,11.4477153 6,12 C6,12.5522847 6.44771525,13 7,13 L7,13 L17,13 C17.5522847,13 18,12.5522847 18,12 C18,11.4477153 17.5522847,11 17,11 L17,11 Z" id="↳-🎨COLOR" ></path>
    </g>
</svg>