<?xml version="1.0" encoding="UTF-8"?>
<svg width="24px" height="24px" viewBox="0 0 24 24" fill="#4c4c4c" version="1.1" xmlns="http://www.w3.org/2000/svg" xmlns:xlink="http://www.w3.org/1999/xlink">
    <title>3. Icon/Fill/Checkbox-checked-fill</title>
    <g id="3.-Icon/Fill/Checkbox-checked" stroke="none" stroke-width="1"  fill-rule="evenodd" >
        <path d="M20,2 C21.1,2 22,2.9 22,4 L22,4 L22,20 C22,21.1 21.1,22 20,22 L20,22 L4,22 C2.9,22 2,21.1 2,20 L2,20 L2,4 C2,2.9 2.9,2 4,2 L4,2 Z M17.3,7.3 L10,14.6 L6.7,11.3 C6.3,10.9 5.7,10.9 5.3,11.3 C4.9,11.7 4.9,12.3 5.3,12.7 L9.3,16.7 C9.5,16.9 9.7,17 10,17 C10.3,17 10.5,16.9 10.7,16.7 L18.7,8.7 C19.1,8.3 19.1,7.7 18.7,7.3 C18.3,6.9 17.7,6.9 17.3,7.3 Z" id="↳-🎨COLOR" ></path>
    </g>
</svg>