<?xml version="1.0" encoding="UTF-8"?>
<svg width="24px" height="24px" viewBox="0 0 24 24" fill="#4c4c4c" version="1.1" xmlns="http://www.w3.org/2000/svg" xmlns:xlink="http://www.w3.org/1999/xlink">
    <title>3. Icon/Social/Dropbox</title>
    <g id="3.-Icon/Social/Dropbox" stroke="none" stroke-width="1"  fill-rule="evenodd" >
        <path d="M12.012,14.2470702 L7.825,17.7463714 L6,16.5687023 L6,17.8893667 L12,21.5 L18,17.8893667 L18,16.5687023 L16.187,17.7463714 L12.012,14.2470702 Z M22,6.4231803 L16.117,2.5 L12,6.00951511 L17.932,9.750887 L22,6.4231803 Z M12,13.4922589 L16.117,17.001774 L22,13.0785937 L17.932,9.750887 L12,13.4922589 Z M2,13.0785937 L7.883,17.001774 L12,13.4922589 L6.068,9.750887 L2,13.0785937 Z M12,6.00951511 L6.068,9.750887 L2,6.4231803 L7.883,2.5 L12,6.00951511 Z" id="↳-🎨COLOR" ></path>
    </g>
</svg>