<?xml version="1.0" encoding="UTF-8"?>
<svg width="24px" height="24px" viewBox="0 0 24 24" fill="#4c4c4c" version="1.1" xmlns="http://www.w3.org/2000/svg" xmlns:xlink="http://www.w3.org/1999/xlink">
    <title>3. Icon/Social/Facebook</title>
    <g id="3.-Icon/Social/Facebook" stroke="none" stroke-width="1"  fill-rule="evenodd" >
        <path d="M20.8888889,2 L3.11111111,2 C2.49746139,2 2,2.49746139 2,3.11111111 L2,20.8888889 C2,21.5025386 2.49746139,22 3.11111111,22 L12.6833333,22 L12.6833333,14.2666667 L10.0861111,14.2666667 L10.0861111,11.2388889 L12.6833333,11.2388889 L12.6833333,9.01666667 C12.6833333,6.43333333 14.2611111,5.025 16.5722222,5.025 C17.3497363,5.02272776 18.1268021,5.06260106 18.9,5.14444444 L18.9,7.83333333 L17.3055556,7.83333333 C16.0527778,7.83333333 15.8083333,8.43055556 15.8083333,9.30555556 L15.8083333,11.2333333 L18.8055556,11.2333333 L18.4166667,14.2611111 L15.8083333,14.2611111 L15.8083333,22 L20.8888889,22 C21.5025386,22 22,21.5025386 22,20.8888889 L22,3.11111111 C22,2.49746139 21.5025386,2 20.8888889,2 Z" id="↳-🎨COLOR" ></path>
    </g>
</svg>